IKResults
version=1
nRows=5
nColumns=40
inDegrees=yes

Units are S.I. units (second, meters, Newtons, ...)
Angles are in degrees.

endheader
time	pelvis_tilt	pelvis_list	pelvis_rotation	pelvis_tx	pelvis_ty	pelvis_tz	hip_flexion_r	hip_adduction_r	hip_rotation_r	knee_angle_r	knee_angle_r_beta	ankle_angle_r	subtalar_angle_r	mtp_angle_r	hip_flexion_l	hip_adduction_l	hip_rotation_l	knee_angle_l	knee_angle_l_beta	ankle_angle_l	subtalar_angle_l	mtp_angle_l	lumbar_extension	lumbar_bending	lumbar_rotation	arm_flex_r	arm_add_r	arm_rot_r	elbow_flex_r	pro_sup_r	wrist_flex_r	wrist_dev_r	arm_flex_l	arm_add_l	arm_rot_l	elbow_flex_l	pro_sup_l	wrist_flex_l	wrist_dev_l
      0.00000000	     14.36591028	     -4.95727918	      1.77397390	     -1.31807598	      0.92618765	      0.92232090	      9.03599455	     -1.64293462	    -26.66878302	    -18.16089278	     -0.31696737	      1.93899205	      9.35274887	     -7.16789364	    -27.46170375	      1.94483350	     17.85417704	    -11.66225519	     -0.20354475	     16.29403524	     -0.34135741	     -6.68158016	    -20.51096850	      4.92610912	     -5.77172929	    -11.56084086	     -9.54782210	     -3.76157335	     19.29441314	     89.95437384	      0.00000000	      0.00000000	     14.42635307	      9.74757961	      5.96598434	     48.86145097	     89.95437384	      0.00000000	      0.00000000
      0.01000000	     14.14778810	     -5.29975672	      1.89049283	     -1.30874873	      0.92463821	      0.92456354	      9.27595053	     -0.93964852	    -26.86248013	    -16.73956777	     -0.29216057	      2.45707671	     10.65657704	     -7.41449210	    -27.69017682	      2.52065055	     17.55876842	    -12.03421270	     -0.21003663	     16.64996558	     -0.18530502	     -6.74448919	    -20.36940557	      5.32223403	     -5.62310343	    -11.43684669	     -9.53265533	     -3.78911228	     19.10543100	     89.95437384	      0.00000000	      0.00000000	     14.35291225	      9.86545567	      5.81461894	     49.99738371	     89.95437384	      0.00000000	      0.00000000
      0.02000000	     14.11237118	     -5.67509081	      2.27035964	     -1.29925030	      0.92340286	      0.92654850	      9.21841007	     -0.26305886	    -27.38240892	    -15.54319548	     -0.27127994	      2.66936146	     11.87874157	     -7.70883496	    -27.95904396	      3.32232484	     17.26797730	    -12.70736455	     -0.22178535	     16.82892854	      0.06073475	     -6.81569524	    -20.39915812	      5.82783599	     -5.67802287	    -11.32658423	     -9.51130498	     -3.87660037	     19.07551867	     89.95437384	      0.00000000	      0.00000000	     14.29561741	      9.94065353	      5.76480772	     50.96957055	     89.95437384	      0.00000000	      0.00000000
      0.03000000	     13.83671919	     -5.57162714	      2.23747523	     -1.28954943	      0.92183717	      0.92858329	      9.72606639	     -0.23097984	    -27.40702458	    -15.41664833	     -0.26907127	      2.79768261	     11.71912280	     -7.65683588	    -28.09142969	      3.39986562	     16.99838568	    -13.19147349	     -0.23023465	     16.66557380	      0.07583788	     -6.74854188	    -20.13539961	      5.73555550	     -5.44318480	    -11.38344132	     -9.53111787	     -3.84911443	     19.15564854	     89.95437384	      0.00000000	      0.00000000	     14.36130238	      9.87647882	      5.73873393	     51.44871471	     89.95437384	      0.00000000	      0.00000000
      0.04000000	     13.93157241	     -6.04183559	      2.99034664	     -1.27932524	      0.92089755	      0.93036595	      9.19641722	      0.56344127	    -27.89482396	    -14.51023602	     -0.25325139	      3.06235947	     12.49117494	     -8.07853211	    -28.38435357	      4.52794187	     16.26204342	    -14.07864002	     -0.24571862	     16.89945523	      0.42056468	     -6.91980932	    -20.18444038	      6.43590244	     -5.96767281	    -11.14484680	     -9.48115204	     -3.93271162	     18.97693656	     89.95437384	      0.00000000	      0.00000000	     13.99771709	     10.11715904	      5.66153031	     52.41810775	     89.95437384	      0.00000000	      0.00000000
